<svg width="50" height="40" viewBox="0 0 50 40" fill="none" xmlns="http://www.w3.org/2000/svg">
<path d="M44.8604 9.96871C44.8921 10.4062 44.8921 10.8438 44.8921 11.2812C44.8921 24.6249 34.5812 40 15.736 40C9.93017 40 4.53682 38.3437 0 35.4688C0.824902 35.5625 1.61797 35.5938 2.47461 35.5938C7.26514 35.5938 11.6751 34.0001 15.1967 31.2813C10.6916 31.1875 6.91621 28.2813 5.61543 24.2812C6.25 24.3749 6.88447 24.4375 7.55078 24.4375C8.4708 24.4375 9.39092 24.3124 10.2475 24.0938C5.55205 23.1562 2.03037 19.0937 2.03037 14.1875V14.0625C3.39453 14.8125 4.98096 15.2813 6.6623 15.3437C3.90215 13.5312 2.09385 10.4375 2.09385 6.93743C2.09385 5.06246 2.60137 3.34371 3.48975 1.8437C8.53418 7.9687 16.1167 11.9686 24.6191 12.4062C24.4605 11.6562 24.3653 10.875 24.3653 10.0938C24.3653 4.5312 28.9339 0 34.6128 0C37.5633 0 40.2282 1.21875 42.1001 3.1875C44.416 2.75002 46.6368 1.90623 48.6039 0.750005C47.8424 3.09381 46.2244 5.06256 44.0988 6.31247C46.161 6.09383 48.1598 5.53121 49.9998 4.75003C48.6041 6.74995 46.8591 8.53113 44.8604 9.96871Z" fill="#374151"/>
</svg>
