<svg width="50" height="51" viewBox="0 0 50 51" fill="none" xmlns="http://www.w3.org/2000/svg">
<path d="M40.619 20.9649C40.619 25.4962 39.1642 29.6819 36.7134 33.0779L49.0748 45.5859C50.2954 46.8199 50.2954 48.8239 49.0748 50.0579C47.8543 51.2919 45.8722 51.2919 44.6517 50.0579L32.2902 37.55C28.9313 40.0378 24.7913 41.4988 20.3095 41.4988C9.09046 41.4988 0 32.3079 0 20.9649C0 9.62185 9.09046 0.430939 20.3095 0.430939C31.5286 0.430939 40.619 9.62185 40.619 20.9649ZM20.3095 35.1807C22.156 35.1807 23.9843 34.813 25.6902 34.0986C27.3961 33.3842 28.9461 32.337 30.2518 31.017C31.5574 29.6969 32.5931 28.1298 33.2997 26.405C34.0063 24.6803 34.37 22.8317 34.37 20.9649C34.37 19.098 34.0063 17.2495 33.2997 15.5247C32.5931 13.8 31.5574 12.2328 30.2518 10.9128C28.9461 9.59273 27.3961 8.5456 25.6902 7.83119C23.9843 7.11678 22.156 6.74907 20.3095 6.74907C18.4631 6.74907 16.6347 7.11678 14.9288 7.83119C13.2229 8.5456 11.6729 9.59273 10.3673 10.9128C9.06166 12.2328 8.02597 13.8 7.31937 15.5247C6.61277 17.2495 6.24908 19.098 6.24908 20.9649C6.24908 22.8317 6.61277 24.6803 7.31937 26.405C8.02597 28.1298 9.06166 29.6969 10.3673 31.017C11.6729 32.337 13.2229 33.3842 14.9288 34.0986C16.6347 34.813 18.4631 35.1807 20.3095 35.1807Z" fill="#FABA00"/>
</svg>
