<svg width="54" height="38" viewBox="0 0 54 38" fill="none" xmlns="http://www.w3.org/2000/svg">
<path d="M52.219 5.86748C51.6056 3.55791 49.7983 1.73896 47.5037 1.12168C43.3445 0 26.6667 0 26.6667 0C26.6667 0 9.98897 0 5.82969 1.12168C3.53506 1.73906 1.72783 3.55791 1.11445 5.86748C0 10.0537 0 18.7879 0 18.7879C0 18.7879 0 27.5221 1.11445 31.7083C1.72783 34.0179 3.53506 35.761 5.82969 36.3783C9.98897 37.5 26.6667 37.5 26.6667 37.5C26.6667 37.5 43.3444 37.5 47.5037 36.3783C49.7983 35.761 51.6056 34.0179 52.219 31.7083C53.3334 27.5221 53.3334 18.7879 53.3334 18.7879C53.3334 18.7879 53.3334 10.0537 52.219 5.86748ZM21.2121 26.7179V10.8579L35.1515 18.7881L21.2121 26.7179Z" fill="#374151"/>
</svg>
